# xmcd
#
# Track frame offsets:
# 150
# 14200
# 32838
# 50755
# 64119
# 82289
# 97311
# 113014
# 131331
# 152787
# 166482
# 187924
# 205301
# 224835
#
# Disc length: 3222 seconds
#
# Revision: 0
# Processed by: cddbd v1.5.1PL0 Copyright (c) Steve Scherf et al.
# Submitted via: Axialis_AX_CDPlayer 2.6
#
DISCID=d80c940e
DTITLE=Adam Brand - Get Loud
DYEAR=1900
DGENRE=
TTITLE0=We're Makin' Up
TTITLE1=Infinity
TTITLE2=Get Loud
TTITLE3=Number 34
TTITLE4=This Time Of Year
TTITLE5=Food, Water, Shelter, Love
TTITLE6=Eighteen
TTITLE7=Cowboy Tequila
TTITLE8=Impossible To Do
TTITLE9=Lifetime Friends
TTITLE10=Just Drive
TTITLE11=Senoritas
TTITLE12=Come On Home
TTITLE13=She's Country
EXTD=
EXTT0=
EXTT1=
EXTT2=
EXTT3=
EXTT4=
EXTT5=
EXTT6=
EXTT7=
EXTT8=
EXTT9=
EXTT10=
EXTT11=
EXTT12=
EXTT13=
PLAYORDER=
